<?xml version="1.0" standalone="no"?>
<!DOCTYPE svg>
<svg version="1.0" xmlns="http://www.w3.org/2000/svg"
 width="500.000000pt" height="500.000000pt" viewBox="0 0 500.000000 500.000000"
 preserveAspectRatio="xMidYMid meet">

<g id="logo-svg-group" transform="translate(0.000000,500.000000) scale(0.100000,-0.100000)"
fill="#000000" stroke="none">
<path d="M3988 4799 c-248 -37 -448 -203 -502 -415 -70 -271 112 -537 416
-609 83 -19 235 -19 317 1 181 44 331 158 407 309 l40 80 158 106 157 107
-171 57 -170 57 -40 57 c-49 73 -121 138 -197 178 -113 61 -290 91 -415 72z
m105 -244 c46 -32 67 -71 67 -127 0 -87 -69 -152 -153 -145 -61 5 -96 30 -125
89 -18 35 -22 55 -16 82 19 106 140 159 227 101z"/>
<path d="M2129 2722 c-906 -1060 -1004 -1178 -985 -1185 24 -10 241 -1 361 14
600 76 1231 448 1630 961 146 188 208 293 263 448 87 249 57 481 -95 726 -52
84 -150 214 -161 214 -4 0 -460 -530 -1013 -1178z"/>
<path d="M3706 3380 c26 -149 12 -309 -42 -482 -133 -425 -607 -956 -1133
-1269 -286 -170 -627 -294 -946 -345 -127 -20 -443 -29 -560 -16 -49 6 -91 9
-93 7 -2 -1 30 -24 70 -51 148 -97 374 -184 574 -220 140 -25 468 -26 614 -1
240 41 490 121 690 222 439 220 823 566 1056 950 142 232 188 468 134 681 -40
158 -165 368 -317 534 l-60 64 13 -74z"/>
<path d="M372 669 c-194 -227 -352 -415 -352 -419 0 -13 141 -71 220 -91 199
-51 398 -27 593 72 123 62 173 109 396 368 l142 165 -123 42 c-155 54 -281
117 -413 205 -57 38 -105 69 -107 69 -2 0 -163 -185 -356 -411z"/>
<path d="M2245 734 c-38 -7 -87 -13 -107 -13 -20 -1 -39 -5 -42 -9 -2 -4 17
-82 44 -172 27 -90 47 -167 44 -172 -3 -4 -131 -8 -285 -8 l-279 0 0 -115 0
-115 1310 0 1310 0 0 115 0 115 -894 0 c-718 0 -896 3 -904 13 -6 7 -35 95
-64 195 -29 100 -55 181 -58 181 -3 -1 -36 -7 -75 -15z"/>
</g>
</svg>
